<svg width="64" height="64" viewBox="0 0 64 64" fill="none" xmlns="http://www.w3.org/2000/svg">
  <defs>
    <linearGradient id="fgrad2b" x1="0%" y1="0%" x2="100%" y2="100%">
      <stop offset="0%" style="stop-color:#0f172a;stop-opacity:1" />
      <stop offset="100%" style="stop-color:#334155;stop-opacity:1" />
    </linearGradient>
    <linearGradient id="faccent2b" x1="0%" y1="0%" x2="100%" y2="100%">
      <stop offset="0%" style="stop-color:#3b82f6;stop-opacity:1" />
      <stop offset="100%" style="stop-color:#60a5fa;stop-opacity:1" />
    </linearGradient>
  </defs>
  
  <rect width="64" height="64" rx="12" fill="url(#fgrad2b)"/>
  
  <!-- Simplified Circuit -->
  <g stroke="url(#faccent2b)" stroke-width="1.5" opacity="0.5" fill="none">
    <path d="M 15 32 L 24 32 L 24 24 L 32 24"/>
    <path d="M 49 32 L 40 32 L 40 24 L 32 24"/>
    <path d="M 32 15 L 32 24"/>
    <path d="M 32 49 L 32 40 L 40 40 L 40 32"/>
  </g>
  
  <!-- Central Chip -->
  <rect x="26" y="26" width="12" height="12" rx="1" fill="white"/>
  <rect x="27" y="27" width="10" height="10" rx="1" fill="url(#fgrad2b)"/>
  <text x="32" y="34" font-family="Arial, sans-serif" font-size="6" font-weight="bold" 
        fill="white" text-anchor="middle">PS</text>
  
  <!-- Nodes -->
  <circle cx="15" cy="32" r="3" fill="url(#faccent2b)"/>
  <circle cx="49" cy="32" r="3" fill="url(#faccent2b)"/>
  <circle cx="32" cy="15" r="3" fill="url(#faccent2b)"/>
  <circle cx="32" cy="49" r="3" fill="url(#faccent2b)"/>
</svg>
